<?xml version="1.0" encoding="UTF-8"?>
<!DOCTYPE svg PUBLIC "-//W3C//DTD SVG 1.1//EN" "http://www.w3.org/Graphics/SVG/1.1/DTD/svg11.dtd">
<svg xmlns="http://www.w3.org/2000/svg" version="1.1" width="513px" height="513px" style="shape-rendering:geometricPrecision; text-rendering:geometricPrecision; image-rendering:optimizeQuality; fill-rule:evenodd; clip-rule:evenodd" xmlns:xlink="http://www.w3.org/1999/xlink">
<g><path style="opacity:0.991" fill="#1da8ff" d="M 512.5,313.5 C 512.5,324.833 512.5,336.167 512.5,347.5C 509.101,376.86 499.601,404.193 484,429.5C 479.829,439.386 479.495,449.386 483,459.5C 489.081,470.663 495.414,481.663 502,492.5C 505.774,500.739 503.941,507.405 496.5,512.5C 435.833,512.5 375.167,512.5 314.5,512.5C 243.094,502.224 191.928,464.557 161,399.5C 156.998,388.995 153.498,378.328 150.5,367.5C 105.837,366.667 61.1704,366.167 16.5,366C 11.4805,363.793 9.14722,359.96 9.5,354.5C 9.54202,351.741 10.042,349.075 11,346.5C 17.7316,336.094 24.0649,325.428 30,314.5C 31.7337,309.621 32.9004,304.621 33.5,299.5C 32.7488,294.417 31.5822,289.417 30,284.5C -3.74727,229.032 -8.74727,171.032 15,110.5C 45.1687,46.6837 95.3354,10.1837 165.5,1C 232.46,-3.75623 286.96,19.7438 329,71.5C 346.649,94.9696 358.482,121.136 364.5,150C 437.485,167.319 484.985,211.819 507,283.5C 509.186,293.583 511.019,303.583 512.5,313.5 Z"/></g>
<g><path style="opacity:1" fill="#fefeff" d="M 170.5,25.5 C 236.317,23.4832 286.484,50.1499 321,105.5C 350.578,163.567 347.578,219.9 312,274.5C 282.86,313.329 244.027,335.496 195.5,341C 144.833,341.667 94.1667,341.667 43.5,341C 58.2262,320.477 61.3929,298.31 53,274.5C 18.75,218.588 16.75,161.588 47,103.5C 75.8421,58.1533 117.009,32.1533 170.5,25.5 Z"/></g>
<g><path style="opacity:1" fill="#1fa8ff" d="M 161.5,105.5 C 181.034,102.721 199.034,106.554 215.5,117C 230.141,130.044 235.308,146.21 231,165.5C 227.529,179.64 219.029,189.474 205.5,195C 199.283,197.304 192.949,199.137 186.5,200.5C 186.167,205.167 185.833,209.833 185.5,214.5C 177.167,214.5 168.833,214.5 160.5,214.5C 158.366,201.563 156.7,188.563 155.5,175.5C 167.335,175.25 178.668,172.75 189.5,168C 197.368,160.788 198.534,152.621 193,143.5C 190.489,141.437 187.656,139.937 184.5,139C 167.245,136.134 152.578,140.968 140.5,153.5C 133.159,146.159 126.159,138.492 119.5,130.5C 130.77,117.534 144.77,109.2 161.5,105.5 Z"/></g>
<g><path style="opacity:1" fill="#6fc7ff" d="M 367.5,176.5 C 366.833,181.5 366.167,186.5 365.5,191.5C 365.172,186.125 365.505,180.792 366.5,175.5C 367.107,175.624 367.44,175.957 367.5,176.5 Z"/></g>
<g><path style="opacity:1" fill="#d0edff" d="M 367.5,176.5 C 424.982,192.481 463.149,228.814 482,285.5C 494.095,333.168 487.095,377.835 461,419.5C 453.669,436.816 453.669,454.149 461,471.5C 463.845,476.527 466.679,481.527 469.5,486.5C 420.003,487.499 370.336,487.832 320.5,487.5C 258.83,480.601 213.997,449.601 186,394.5C 181.968,385.441 178.801,376.107 176.5,366.5C 241.165,365.585 292.998,339.585 332,288.5C 352.249,259.329 363.415,226.996 365.5,191.5C 366.167,186.5 366.833,181.5 367.5,176.5 Z"/></g>
<g><path style="opacity:1" fill="#1aa8ff" d="M 190.5,233.5 C 190.5,245.5 190.5,257.5 190.5,269.5C 178.167,269.5 165.833,269.5 153.5,269.5C 153.5,257.5 153.5,245.5 153.5,233.5C 165.833,233.5 178.167,233.5 190.5,233.5 Z"/></g>
<g><path style="opacity:1" fill="#60c0ff" d="M 190.5,233.5 C 178.167,233.5 165.833,233.5 153.5,233.5C 153.5,245.5 153.5,257.5 153.5,269.5C 165.833,269.5 178.167,269.5 190.5,269.5C 178.011,270.495 165.344,270.829 152.5,270.5C 152.5,257.833 152.5,245.167 152.5,232.5C 165.344,232.171 178.011,232.505 190.5,233.5 Z"/></g>
<g><path style="opacity:1" fill="#88d2ff" d="M 469.5,486.5 C 470.043,486.56 470.376,486.893 470.5,487.5C 420.335,488.831 370.335,488.831 320.5,487.5C 370.336,487.832 420.003,487.499 469.5,486.5 Z"/></g>
</svg>
